<svg width="297" height="157" viewBox="0 0 297 157" fill="none" xmlns="http://www.w3.org/2000/svg">
<path opacity="0.952941" d="M44.2048 0.0584068C45.5048 -0.141593 45.6048 0.208407 45.7048 0.558407L46.1047 3.85841L45.7048 4.2584V8.2584L46.6047 8.7584L48.1047 6.2584L48.7048 4.2584V3.2584L49.9048 1.7584H50.9048L51.7048 2.05841L53.1047 5.85841V8.2584L53.4048 8.55841L53.7048 13.5584L54.7048 16.5584L55.4048 17.5584V18.5584L56.4048 20.8584V21.8584L56.7048 22.2584L57.7048 27.2584L58.4048 28.2584V29.2584L59.1047 31.2584L61.4048 35.5584V36.2584L63.7048 41.2584L65.1047 42.8584L65.7048 44.5584L69.1047 49.8584L70.9048 51.7584L74.2048 54.3584H74.7048L75.1047 55.8584C74.9047 56.8584 74.2547 56.8084 73.6047 56.7584L68.6047 54.3584L66.1047 52.2584L61.4048 46.8584L60.4048 44.8584L58.1047 41.8584L57.1047 38.8584L55.9048 37.3584C54.9048 37.8584 55.1548 38.8584 55.4048 39.8584L55.7048 40.2584C55.3048 41.8584 55.7047 42.0584 56.1047 42.2584V45.8584L56.4048 46.2584L56.7048 50.5584L57.1047 50.8584V51.8584L57.7048 53.5584V54.8584L58.1047 55.2584L58.7048 58.8584L59.7048 61.2584V62.2584L60.4048 64.2584L64.1047 72.5584L65.7048 74.5584L68.1047 78.5584L70.7048 81.2584V82.3584H68.9048L64.6047 79.7584L60.1047 75.2584L57.7048 71.8584L54.9048 66.7584L54.4048 66.8584V73.8584L54.7048 74.2584L55.1047 79.2584L55.4048 79.5584V81.8584L55.7048 82.2584L56.1047 86.2584L56.4048 86.5584L57.1047 91.2584L57.4048 91.5584V92.5584L58.4048 94.8584V95.8584L59.4048 98.8584L60.1047 99.8584L61.1047 103.558L62.7048 106.858V107.558L63.4048 108.258V108.858L66.7048 114.858L71.1047 120.558L74.6047 124.358L81.9048 131.058L89.9048 136.758L98.2048 141.058H98.9048L101.905 142.758L107.205 144.358L108.205 145.058L111.205 146.058H112.205L114.605 147.058H115.605L119.905 148.758L122.605 149.058L122.905 149.358L125.605 149.758L125.905 150.058L129.205 150.358L129.605 150.758H131.205L131.605 151.058H133.605L133.905 151.358H135.905L136.205 151.758H138.605L138.905 152.058L145.605 152.358L145.905 152.758H157.605L157.905 152.358H160.605L160.905 152.058H165.205L165.605 151.758H167.605L167.905 151.358H170.205L170.605 151.058H172.605L172.905 150.758H174.605L176.605 150.058H178.605L181.605 149.058H183.605L186.205 148.058H187.205L189.205 147.058H190.205L192.605 146.058H193.605L196.605 145.058L197.605 144.358H198.205L199.205 143.758H199.905L200.905 143.058H201.605L208.605 139.758L210.905 138.058L214.205 136.358L216.905 134.358L217.905 134.058L220.905 131.358L223.205 130.058L233.405 120.258L238.405 113.258L243.405 102.858V102.258L244.105 101.258L244.405 99.5584L245.705 96.5584L246.105 94.2584L246.705 92.8584V91.8584L247.405 90.5584V89.5584L247.705 89.2584V88.2584L248.705 85.2584V82.8584L249.405 81.2584V79.5584L249.705 79.2584V78.2584L250.405 76.5584V75.2584L251.105 73.5584V72.2584L251.405 71.8584V64.7584L250.405 65.2584L248.705 68.8584L245.405 73.8584L241.905 77.3584L238.605 79.3584H237.205C236.605 79.2584 236.655 78.7584 236.705 78.2584L240.105 73.8584L242.105 69.5584L242.705 68.8584L245.405 63.8584V63.2584L246.105 62.2584L247.405 57.5584L248.105 56.5584L249.405 52.5584L249.705 50.2584L250.705 47.5584L251.105 44.2584L250.905 44.0584L249.405 45.5584C247.505 48.8584 246.205 50.1084 244.905 51.3584L240.905 54.3584C240.105 54.9584 239.405 54.8584 238.705 54.7584L239.105 53.5584L242.405 49.8584L246.105 44.2584L249.105 38.2584L249.705 35.8584L251.405 32.8584L252.105 30.8584V29.8584L252.705 28.5584V27.2584L253.405 25.8584C253.005 24.3584 253.355 24.1084 253.705 23.8584V21.2584L254.105 20.8584V19.5584L254.705 17.8584V14.8584L255.105 14.5584V12.5584L255.405 12.2584V8.2584L255.705 7.85841L256.105 2.55841C256.705 2.35841 256.555 1.8084 256.405 1.2584L257.205 0.0584068C258.205 -0.141593 258.305 0.208407 258.405 0.558407L259.405 2.85841V3.85841C260.005 5.65841 260.705 6.10841 261.405 6.55841L262.405 8.55841L264.705 15.5584L269.405 25.5584L271.705 29.2584L276.205 33.7584L279.205 35.7584C281.105 36.0584 281.655 36.5584 282.205 37.0584H282.905L284.605 38.0584H287.905L289.705 38.7584L290.105 39.5584L288.905 41.0584C288.305 41.6584 287.605 41.5084 286.905 41.3584L286.605 41.7584H284.205L283.905 41.3584H282.605L282.205 41.0584L279.705 40.7584V41.2584L282.905 44.3584L286.905 47.3584L289.605 48.7584L291.605 49.3584H295.205L296.105 49.7584C296.405 50.9584 296.005 51.1584 295.605 51.3584L294.205 52.0584H292.205L291.905 52.3584H288.205L287.905 52.0584H285.905L281.905 50.7584L273.605 45.7584L272.105 45.3584V46.2584L273.105 47.5584L277.405 51.8584L281.105 56.2584L285.405 62.5584L286.405 65.5584L287.105 69.2584L287.405 69.5584V72.2584L287.705 72.5584V78.5584L287.405 78.8584L287.105 83.5584L286.705 83.8584L286.405 86.2584L285.705 88.2584L284.405 90.5584V91.2584L281.405 95.8584L277.605 100.358L269.605 106.358L265.205 108.358L261.905 109.058L261.605 109.358H260.605L260.205 109.758H252.905L252.605 109.358H249.905L247.605 108.358H245.705V108.858L241.705 114.258L241.405 115.258L236.405 122.558L229.905 129.358L228.205 130.358L221.205 136.358L214.905 140.758L206.205 145.058H205.605L202.605 146.758H201.905L198.905 148.358L195.605 149.358L194.605 150.058H193.605L190.205 151.358H189.205L187.905 152.058L185.605 152.358L184.205 153.058H182.905L182.605 153.358L179.905 153.758L179.605 154.058H178.205L177.905 154.358L174.205 154.758L172.205 155.358L166.905 155.758L166.605 156.058H162.605L162.205 156.358H144.605L144.205 156.058H139.905L139.605 155.758H136.905L136.605 155.358L131.205 155.058L130.905 154.758L127.605 154.358L127.205 154.058L124.205 153.758L122.605 153.058H121.205L119.605 152.358H118.205L108.205 149.058L107.205 148.358L105.605 148.058L104.605 147.358L99.6047 145.758L94.2048 143.058H93.6047L84.2048 137.358L76.2048 131.358L68.4048 123.858L63.1047 116.858L60.4048 111.858L59.1047 110.258L57.7048 107.058H55.9048L53.6047 108.058H50.2048C50.0048 108.658 49.4548 108.508 48.9048 108.358L48.6047 108.058H44.2048C43.8048 107.258 43.0048 107.508 42.2048 107.758L41.9048 107.358H40.9048L38.9048 106.758L35.6047 105.058H34.9048L32.9048 104.058L26.9048 99.7584L23.4048 96.2584L19.1047 89.8584V89.2584L17.4048 85.5584V84.5584L16.4048 81.5584V78.8584L16.1047 78.5584V73.5584L16.4048 73.2584V70.8584L16.7048 70.5584V67.0584C15.9048 67.3584 15.7547 67.0584 15.6047 66.7584L15.2048 67.0584L12.9048 67.3584L12.4048 66.5584C13.3048 65.1584 14.2548 64.9584 15.2048 64.7584L17.4048 62.5584L18.4048 60.5584L21.6047 57.3584L23.7048 55.5584L26.2048 52.7584L27.4048 51.8584L31.7048 46.5584L31.6047 46.3584L30.6047 47.3584L26.9048 49.3584L23.6047 52.0584L18.6047 54.3584L15.6047 55.3584L13.2048 55.7584L12.9048 56.0584H10.9048L10.6047 56.3584H7.60474L7.20484 56.7584H4.90479L4.60474 56.3584H2.60474C2.30474 55.8584 1.75484 55.9584 1.20484 56.0584L0.104743 55.2584C-0.195257 53.9584 0.204743 53.8584 0.604743 53.7584L3.90479 53.0584L6.60474 52.0584H7.60474L12.9048 49.0584L17.9048 45.0584L25.7048 37.5584L29.1047 33.5584L30.1047 31.5584L33.4048 27.2584L39.4048 15.8584L40.1047 12.5584L40.4048 12.2584V11.2584L42.1047 6.55841V5.2584L43.1047 2.85841V1.85841L43.4048 0.85841L44.2048 0.0584068ZM262.405 45.0584L261.405 47.0584V48.0584V49.0584C261.405 50.0584 261.905 50.0584 262.405 50.0584L264.405 49.0584H265.405V48.0584L264.405 47.0584L263.405 45.0584H262.405ZM264.405 54.0584L262.405 55.0584H261.405H260.405L257.405 62.0584V66.0584L255.405 70.0584V71.0584V72.0584V73.0584H256.405C258.405 71.0584 259.905 70.5584 261.405 70.0584L263.405 69.0584H264.405H266.405V68.0584H269.405V69.0584H271.405L272.405 70.0584V71.0584C271.405 71.0584 271.905 71.5584 272.405 72.0584H271.405H268.405L265.405 73.0584H264.405L260.405 75.0584L255.405 78.0584L254.405 80.0584L253.405 82.0584V86.0584H252.405V87.0584L251.405 90.0584V92.0584L250.405 95.0584V96.0584V97.0584L248.405 102.058V104.058L252.405 105.058H258.405H260.405C261.405 104.058 261.905 104.558 262.405 105.058L267.405 103.058L273.405 99.0584L276.405 96.0584L279.405 91.0584L282.405 85.0584V82.0584L283.405 81.0584V80.0584V71.0584C282.405 71.0584 282.905 70.5584 283.405 70.0584L281.405 66.0584L279.405 62.0584C276.405 58.0584 273.905 56.5584 271.405 55.0584H269.405H268.405V54.0584H267.405H264.405ZM38.4048 55.0584L36.4048 57.0584L32.4048 60.0584H30.4048L31.4048 59.0584V58.0584H30.4048C30.4048 58.0584 29.9048 58.0584 29.4048 58.0584C29.4048 59.0584 28.9048 59.5584 28.4048 60.0584C28.4048 61.0584 28.9048 61.0584 29.4048 61.0584L28.4048 62.0584L25.4048 63.0584C23.4048 65.0584 22.9048 66.0584 22.4048 67.0584V68.0584L21.4048 70.0584V72.0584L20.4048 73.0584V74.0584V80.0584C21.4048 80.0584 20.9048 81.0584 20.4048 82.0584L22.4048 87.0584L24.4048 91.0584L26.4048 94.0584L31.4048 98.0584L35.4048 101.058L40.4048 103.058H42.4048H43.4048H44.4048V104.058H51.4048V103.058H55.4048V102.058V100.058L54.4048 98.0584V97.0584L53.4048 96.0584L52.4048 91.0584V90.0584L51.4048 85.0584V82.0584H50.4048V81.0584V79.0584L46.4048 75.0584C43.4048 74.0584 42.4048 73.5584 41.4048 73.0584L39.4048 72.0584H32.4048C31.4048 72.0584 31.4048 71.0584 31.4048 70.0584L33.4048 69.0584L35.4048 68.0584H36.4048H37.4048H40.4048L42.4048 69.0584L45.4048 70.0584L47.4048 72.0584H48.4048V70.0584L47.4048 67.0584V66.0584V65.0584L46.4048 63.0584V62.0584L44.4048 56.0584L43.4048 55.0584H40.4048C39.4048 54.0584 38.9048 54.5584 38.4048 55.0584Z" fill="#12100F"/>
</svg>
